<?xml version="1.0" encoding="utf-8" standalone="no"?>
<!DOCTYPE svg PUBLIC "-//W3C//DTD SVG 1.1//EN"
  "http://www.w3.org/Graphics/SVG/1.1/DTD/svg11.dtd">
<svg xmlns:xlink="http://www.w3.org/1999/xlink" width="432pt" height="576pt" viewBox="0 0 432 576" xmlns="http://www.w3.org/2000/svg" version="1.1">
 <metadata>
  <rdf:RDF xmlns:dc="http://purl.org/dc/elements/1.1/" xmlns:cc="http://creativecommons.org/ns#" xmlns:rdf="http://www.w3.org/1999/02/22-rdf-syntax-ns#">
   <cc:Work>
    <dc:type rdf:resource="http://purl.org/dc/dcmitype/StillImage"/>
    <dc:date>2024-11-24T10:19:02.262815</dc:date>
    <dc:format>image/svg+xml</dc:format>
    <dc:creator>
     <cc:Agent>
      <dc:title>Matplotlib v3.9.2, https://matplotlib.org/</dc:title>
     </cc:Agent>
    </dc:creator>
   </cc:Work>
  </rdf:RDF>
 </metadata>
 <defs>
  <style type="text/css">*{stroke-linejoin: round; stroke-linecap: butt}</style>
 </defs>
 <g id="figure_1">
  <g id="patch_1">
   <path d="M 0 576 
L 432 576 
L 432 0 
L 0 0 
z
" style="fill: #ffffff"/>
  </g>
  <g id="axes_1">
   <g id="patch_2">
    <path d="M 72.28125 527.76375 
L 419.04 527.76375 
L 419.04 28.32 
L 72.28125 28.32 
z
" style="fill: #ffffff"/>
   </g>
   <g id="matplotlib.axis_1">
    <g id="xtick_1">
     <g id="text_1">
      <!-- parchment -->
      <g style="fill: #262626" transform="translate(137.470234 545.508594) scale(0.11 -0.11)">
       <defs>
        <path id="UnifrakturCook-Bold-70" d="M 1309 -784 
Q 775 -869 213 -1244 
L 56 -1075 
Q 150 -1019 314 -695 
Q 478 -372 478 -113 
L 488 528 
L 44 703 
Q 150 913 276 1072 
Q 403 1231 494 1428 
L 497 2069 
Q 497 2319 292 2466 
Q 88 2613 6 2669 
L 706 3388 
L 1306 2841 
L 1747 3388 
Q 1988 3284 2231 3019 
Q 2759 2453 2856 1838 
Q 2869 1766 2869 1700 
Q 2869 1494 2753 1366 
L 1716 44 
L 1275 219 
L 1272 97 
Q 1272 72 1272 29 
Q 1272 -13 1309 -784 
z
M 1294 1159 
Q 1725 959 1875 959 
Q 1900 959 1919 966 
Q 2191 1028 2191 1309 
Q 2191 1378 2175 1459 
Q 2097 1856 1894 2115 
Q 1691 2375 1459 2522 
Q 1409 2438 1362 2350 
Q 1316 2263 1316 2131 
L 1294 1159 
z
" transform="scale(0.015625)"/>
        <path id="UnifrakturCook-Bold-61" d="M 116 2372 
L 1334 3363 
L 2716 2716 
Q 2472 2503 2469 2238 
L 2456 1203 
Q 2456 1097 2567 962 
Q 2678 828 2778 747 
L 2147 97 
L 1663 594 
Q 1488 453 1309 336 
Q 1131 219 991 91 
Q 522 266 116 631 
Q 231 778 250 1059 
L 241 2003 
Q 241 2016 241 2028 
Q 241 2213 116 2372 
z
M 1188 2613 
Q 1006 2341 1006 2128 
L 1006 1363 
Q 1006 1128 1091 1028 
Q 1163 925 1223 844 
Q 1284 763 1419 725 
L 1675 909 
L 1675 2347 
L 1188 2613 
z
" transform="scale(0.015625)"/>
        <path id="UnifrakturCook-Bold-72" d="M 1234 2919 
L 1641 3331 
Q 2269 2897 2491 2450 
L 1991 1781 
Q 1906 2028 1761 2215 
Q 1616 2403 1278 2600 
L 1175 2459 
L 1116 1394 
Q 1106 1231 1322 1056 
Q 1538 881 1656 831 
L 1138 97 
L 169 850 
Q 344 1059 350 1281 
L 344 2481 
Q 334 2631 113 2781 
L 584 3375 
L 1234 2919 
z
" transform="scale(0.015625)"/>
        <path id="UnifrakturCook-Bold-63" d="M 2163 1131 
L 1106 91 
Q 106 753 106 1634 
Q 106 2069 387 2491 
Q 669 2913 1294 3413 
Q 1563 3238 1847 3070 
Q 2131 2903 2406 2738 
L 1781 2188 
Q 1594 2303 1483 2386 
Q 1372 2469 1248 2525 
Q 1125 2581 1070 2581 
Q 1016 2581 953 2519 
Q 759 2322 759 2075 
Q 759 1641 1266 1147 
Q 1394 1028 1513 1028 
Q 1722 1028 1894 1316 
Q 1959 1269 2026 1223 
Q 2094 1178 2163 1131 
z
" transform="scale(0.015625)"/>
        <path id="UnifrakturCook-Bold-68" d="M 1678 809 
Q 1141 216 984 47 
Q 753 222 523 398 
Q 294 575 66 750 
Q 278 934 343 1090 
Q 409 1247 413 1388 
L 428 3278 
Q 428 3481 411 3762 
Q 394 4044 272 4238 
L 1303 4797 
Q 1219 4422 1205 4019 
Q 1191 3616 1191 3200 
L 1191 2909 
L 1800 3375 
Q 2672 2547 2672 1494 
Q 2672 325 1763 -1072 
L 1297 -925 
Q 2000 -153 2000 841 
Q 2000 1891 1188 2597 
L 1178 1366 
Q 1178 1131 1222 1100 
Q 1266 1069 1678 809 
z
" transform="scale(0.015625)"/>
        <path id="UnifrakturCook-Bold-6d" d="M 1281 2909 
L 1653 3375 
L 2453 2784 
L 2925 3375 
L 3922 2653 
L 3828 2284 
L 3788 1278 
Q 3788 1263 3788 1250 
Q 3788 1103 3881 1006 
Q 3975 909 4094 859 
L 3469 97 
Q 3238 278 3114 418 
Q 2991 559 2991 997 
Q 2991 1028 2991 1063 
L 3013 2219 
Q 3013 2344 2678 2628 
L 2550 2406 
L 2503 1278 
Q 2503 1269 2503 1259 
Q 2503 1106 2597 1007 
Q 2691 909 2813 859 
L 2188 97 
L 1522 631 
Q 1700 841 1706 1063 
L 1725 2219 
Q 1725 2356 1359 2653 
L 1175 2434 
L 1147 1278 
Q 1144 1113 1239 1011 
Q 1334 909 1456 859 
L 831 97 
L 172 631 
Q 350 847 350 1063 
L 375 2481 
Q 375 2631 144 2781 
L 616 3375 
L 1281 2913 
L 1281 2909 
z
" transform="scale(0.015625)"/>
        <path id="UnifrakturCook-Bold-65" d="M 1625 97 
L 128 694 
Q 213 1163 213 1670 
Q 213 2178 116 2731 
L 1194 3366 
L 1194 3375 
L 1200 3372 
L 1203 3372 
L 2419 2500 
L 1153 1169 
Q 1281 1016 1437 1000 
Q 1594 984 1695 984 
Q 1797 984 1936 995 
Q 2075 1006 2278 1013 
Q 2113 781 1950 553 
Q 1788 325 1625 97 
z
M 1106 2531 
Q 925 2531 925 2038 
Q 925 1756 1019 1475 
Q 1019 1447 1028 1428 
L 1531 1959 
Q 1584 2016 1584 2072 
Q 1584 2128 1529 2215 
Q 1475 2303 1419 2359 
Q 1222 2531 1106 2531 
z
" transform="scale(0.015625)"/>
        <path id="UnifrakturCook-Bold-6e" d="M 1263 2919 
L 1628 3375 
L 2625 2653 
L 2531 2284 
L 2491 1278 
Q 2491 1269 2491 1259 
Q 2491 1106 2584 1007 
Q 2678 909 2797 859 
L 2172 97 
Q 1941 278 1817 418 
Q 1694 559 1694 997 
Q 1694 1028 1694 1063 
L 1716 2219 
Q 1716 2350 1316 2656 
L 1191 2459 
L 1131 1278 
Q 1131 1269 1131 1259 
Q 1131 1106 1225 1007 
Q 1319 909 1441 859 
L 816 97 
L 156 631 
Q 334 847 334 1063 
L 359 2481 
Q 359 2631 128 2781 
L 600 3375 
L 1263 2919 
z
" transform="scale(0.015625)"/>
        <path id="UnifrakturCook-Bold-74" d="M 1672 859 
L 975 97 
Q 747 272 515 448 
Q 284 625 59 800 
Q 400 1100 406 1438 
L 419 2734 
L 147 2734 
L 147 2981 
Q 572 3591 1222 4559 
L 1381 4534 
Q 1309 4194 1254 3973 
Q 1200 3753 1188 3425 
L 1738 3425 
L 1738 2750 
L 1178 2750 
L 1172 1419 
Q 1172 1184 1214 1153 
Q 1256 1122 1672 859 
z
" transform="scale(0.015625)"/>
       </defs>
       <use xlink:href="#UnifrakturCook-Bold-70"/>
       <use xlink:href="#UnifrakturCook-Bold-61" x="46.044922"/>
       <use xlink:href="#UnifrakturCook-Bold-72" x="91.064453"/>
       <use xlink:href="#UnifrakturCook-Bold-63" x="130.664062"/>
       <use xlink:href="#UnifrakturCook-Bold-68" x="168.994141"/>
       <use xlink:href="#UnifrakturCook-Bold-6d" x="212.548828"/>
       <use xlink:href="#UnifrakturCook-Bold-65" x="278.466797"/>
       <use xlink:href="#UnifrakturCook-Bold-6e" x="317.236328"/>
       <use xlink:href="#UnifrakturCook-Bold-74" x="362.597656"/>
      </g>
     </g>
    </g>
    <g id="xtick_2">
     <g id="text_2">
      <!-- paper -->
      <g style="fill: #262626" transform="translate(320.499531 545.508594) scale(0.11 -0.11)">
       <use xlink:href="#UnifrakturCook-Bold-70"/>
       <use xlink:href="#UnifrakturCook-Bold-61" x="46.044922"/>
       <use xlink:href="#UnifrakturCook-Bold-70" x="91.064453"/>
       <use xlink:href="#UnifrakturCook-Bold-65" x="137.109375"/>
       <use xlink:href="#UnifrakturCook-Bold-72" x="175.878906"/>
      </g>
     </g>
    </g>
    <g id="text_3">
     <!-- Material -->
     <g style="fill: #262626" transform="translate(225.325312 560.641094) scale(0.12 -0.12)">
      <defs>
       <path id="UnifrakturCook-Bold-4d" d="M 2097 1034 
L 1575 97 
Q 672 553 131 834 
Q 825 1481 903 1744 
Q 916 1791 916 1853 
Q 916 2150 656 2722 
Q 397 3294 311 3508 
Q 225 3722 225 3837 
Q 225 3953 263 4038 
Q 350 4231 675 4392 
Q 1000 4553 1663 4797 
Q 1756 4578 1800 4469 
Q 1381 4331 1341 4125 
Q 1331 4081 1331 4031 
Q 1331 3853 1450 3609 
Q 2553 4691 2656 4797 
Q 2934 4613 3129 4445 
Q 3325 4278 3600 4141 
L 4225 4797 
Q 4600 4594 4978 4392 
Q 5356 4191 5766 4047 
Q 5263 3703 5234 2881 
L 5200 1719 
Q 5200 1684 5200 1650 
Q 5200 1144 5559 1034 
L 5063 97 
Q 4609 263 4436 611 
Q 4263 959 4263 1575 
Q 4263 1619 4263 1663 
L 4269 2450 
Q 4269 2734 4372 2946 
Q 4475 3159 4641 3375 
Q 4013 3834 3700 3872 
Q 3581 3694 3579 3450 
Q 3578 3206 3566 2881 
L 3531 1719 
Q 3531 1684 3531 1650 
Q 3531 1084 3828 988 
L 3097 97 
Q 2928 309 2715 500 
Q 2503 691 2316 850 
Q 2409 959 2500 1193 
Q 2591 1428 2594 1663 
L 2703 3597 
Q 2431 3800 2281 3800 
Q 2244 3800 2213 3788 
Q 2066 3722 1616 3288 
L 1656 3216 
Q 1891 2778 1891 2491 
Q 1891 2413 1872 2344 
Q 1788 2028 1278 1366 
Q 1572 1153 2097 1034 
z
" transform="scale(0.015625)"/>
       <path id="UnifrakturCook-Bold-69" d="M 91 2781 
L 563 3375 
L 1263 3047 
Q 1225 2919 1181 2797 
Q 1138 2675 1138 2547 
L 1094 1278 
Q 1094 1263 1094 1250 
Q 1094 1103 1187 1006 
Q 1281 909 1403 859 
L 778 97 
L 116 631 
Q 297 847 297 1063 
L 319 2481 
Q 319 2631 91 2781 
z
M 184 3403 
L 434 4638 
L 1363 4266 
L 184 3403 
z
" transform="scale(0.015625)"/>
       <path id="UnifrakturCook-Bold-6c" d="M 1678 809 
Q 1141 216 984 47 
Q 753 222 523 398 
Q 294 575 66 750 
Q 278 934 343 1090 
Q 409 1247 413 1388 
L 428 3278 
Q 428 3481 411 3762 
Q 394 4044 272 4238 
L 1303 4797 
Q 1219 4422 1205 4019 
Q 1191 3616 1191 3200 
L 1178 1366 
Q 1178 1131 1222 1100 
Q 1266 1069 1678 809 
z
" transform="scale(0.015625)"/>
      </defs>
      <use xlink:href="#UnifrakturCook-Bold-4d"/>
      <use xlink:href="#UnifrakturCook-Bold-61" x="92.089844"/>
      <use xlink:href="#UnifrakturCook-Bold-74" x="137.109375"/>
      <use xlink:href="#UnifrakturCook-Bold-65" x="165.429688"/>
      <use xlink:href="#UnifrakturCook-Bold-72" x="204.199219"/>
      <use xlink:href="#UnifrakturCook-Bold-69" x="243.798828"/>
      <use xlink:href="#UnifrakturCook-Bold-61" x="266.748047"/>
      <use xlink:href="#UnifrakturCook-Bold-6c" x="311.767578"/>
     </g>
    </g>
   </g>
   <g id="matplotlib.axis_2">
    <g id="ytick_1">
     <g id="line2d_1">
      <path d="M 72.28125 466.257642 
L 419.04 466.257642 
" clip-path="url(#p5741435ef0)" style="fill: none; stroke: #cccccc; stroke-linecap: round"/>
     </g>
     <g id="text_4">
      <!-- 0 -->
      <g style="fill: #262626" transform="translate(57.222813 470.380064) scale(0.11 -0.11)">
       <defs>
        <path id="UnifrakturCook-Bold-30" d="M 1278 4544 
Q 1413 4669 1573 4669 
Q 1734 4669 1925 4503 
Q 3116 3456 3116 2453 
Q 3116 1372 1903 272 
Q 1700 94 1512 94 
Q 1325 94 1153 272 
Q 113 1341 113 2409 
Q 113 3478 1278 4544 
z
M 872 3581 
Q 663 3444 663 3106 
Q 663 2769 1019 2122 
Q 1491 1259 1884 1259 
Q 2000 1259 2106 1331 
Q 2325 1472 2325 1812 
Q 2325 2153 1981 2788 
Q 1503 3653 1100 3653 
Q 984 3653 872 3581 
z
" transform="scale(0.015625)"/>
       </defs>
       <use xlink:href="#UnifrakturCook-Bold-30"/>
      </g>
     </g>
    </g>
    <g id="ytick_2">
     <g id="line2d_2">
      <path d="M 72.28125 374.941742 
L 419.04 374.941742 
" clip-path="url(#p5741435ef0)" style="fill: none; stroke: #cccccc; stroke-linecap: round"/>
     </g>
     <g id="text_5">
      <!-- 50000 -->
      <g style="fill: #262626" transform="translate(35.252031 379.064164) scale(0.11 -0.11)">
       <defs>
        <path id="UnifrakturCook-Bold-35" d="M 419 2381 
Q 872 3616 894 4628 
Q 1566 4469 2700 4469 
Q 2569 4253 2444 4036 
Q 2319 3819 2194 3609 
Q 2097 3603 1870 3603 
Q 1644 3603 1094 3706 
Q 1081 3381 1081 3375 
Q 2450 3169 2744 2431 
Q 2819 2247 2819 2044 
Q 2819 1444 2159 691 
Q 1616 75 1128 75 
Q 1056 75 988 88 
Q 438 194 63 653 
Q 200 1369 284 1756 
Q 734 1209 1231 903 
Q 1419 788 1566 788 
Q 1806 788 1934 1086 
Q 2063 1384 2063 1606 
Q 2063 1975 1722 2163 
Q 1294 2400 741 2400 
Q 584 2400 419 2381 
z
" transform="scale(0.015625)"/>
       </defs>
       <use xlink:href="#UnifrakturCook-Bold-35"/>
       <use xlink:href="#UnifrakturCook-Bold-30" x="48.144531"/>
       <use xlink:href="#UnifrakturCook-Bold-30" x="98.681641"/>
       <use xlink:href="#UnifrakturCook-Bold-30" x="149.21875"/>
       <use xlink:href="#UnifrakturCook-Bold-30" x="199.755859"/>
      </g>
     </g>
    </g>
    <g id="ytick_3">
     <g id="line2d_3">
      <path d="M 72.28125 283.625842 
L 419.04 283.625842 
" clip-path="url(#p5741435ef0)" style="fill: none; stroke: #cccccc; stroke-linecap: round"/>
     </g>
     <g id="text_6">
      <!-- 100000 -->
      <g style="fill: #262626" transform="translate(31.035937 287.748264) scale(0.11 -0.11)">
       <defs>
        <path id="UnifrakturCook-Bold-31" d="M 2188 4688 
L 2147 372 
Q 1469 350 628 -56 
L 444 200 
Q 938 247 1125 1122 
Q 1241 1656 1241 2272 
Q 1241 2888 1194 3450 
L 50 3459 
L 3 3719 
Q 1216 3956 2188 4688 
z
" transform="scale(0.015625)"/>
       </defs>
       <use xlink:href="#UnifrakturCook-Bold-31"/>
       <use xlink:href="#UnifrakturCook-Bold-30" x="35.9375"/>
       <use xlink:href="#UnifrakturCook-Bold-30" x="86.474609"/>
       <use xlink:href="#UnifrakturCook-Bold-30" x="137.011719"/>
       <use xlink:href="#UnifrakturCook-Bold-30" x="187.548828"/>
       <use xlink:href="#UnifrakturCook-Bold-30" x="238.085938"/>
      </g>
     </g>
    </g>
    <g id="ytick_4">
     <g id="line2d_4">
      <path d="M 72.28125 192.309942 
L 419.04 192.309942 
" clip-path="url(#p5741435ef0)" style="fill: none; stroke: #cccccc; stroke-linecap: round"/>
     </g>
     <g id="text_7">
      <!-- 150000 -->
      <g style="fill: #262626" transform="translate(31.298906 196.432364) scale(0.11 -0.11)">
       <use xlink:href="#UnifrakturCook-Bold-31"/>
       <use xlink:href="#UnifrakturCook-Bold-35" x="35.9375"/>
       <use xlink:href="#UnifrakturCook-Bold-30" x="84.082031"/>
       <use xlink:href="#UnifrakturCook-Bold-30" x="134.619141"/>
       <use xlink:href="#UnifrakturCook-Bold-30" x="185.15625"/>
       <use xlink:href="#UnifrakturCook-Bold-30" x="235.693359"/>
      </g>
     </g>
    </g>
    <g id="ytick_5">
     <g id="line2d_5">
      <path d="M 72.28125 100.994042 
L 419.04 100.994042 
" clip-path="url(#p5741435ef0)" style="fill: none; stroke: #cccccc; stroke-linecap: round"/>
     </g>
     <g id="text_8">
      <!-- 200000 -->
      <g style="fill: #262626" transform="translate(29.102344 105.116464) scale(0.11 -0.11)">
       <defs>
        <path id="UnifrakturCook-Bold-32" d="M 3163 1475 
L 2922 97 
Q 2259 194 1625 194 
Q 888 194 63 97 
Q 450 456 822 828 
Q 1194 1200 1547 1659 
Q 2047 2316 2047 2763 
Q 2047 3238 1350 3622 
Q 1250 3675 1179 3675 
Q 1109 3675 1053 3636 
Q 997 3597 997 3525 
Q 997 3453 1031 3375 
Q 1116 3175 1298 3050 
Q 1481 2925 1656 2825 
Q 1497 2600 1336 2379 
Q 1175 2159 1019 1941 
Q 294 2575 294 2967 
Q 294 3359 825 3915 
Q 1356 4472 1703 4472 
Q 2059 4472 2557 4009 
Q 3056 3547 3056 3097 
Q 3056 2841 2884 2597 
Q 2409 1928 1644 1131 
L 2209 1128 
Q 2350 1128 2491 1131 
Q 2881 1138 3044 1563 
Q 3084 1531 3163 1475 
z
" transform="scale(0.015625)"/>
       </defs>
       <use xlink:href="#UnifrakturCook-Bold-32"/>
       <use xlink:href="#UnifrakturCook-Bold-30" x="53.515625"/>
       <use xlink:href="#UnifrakturCook-Bold-30" x="104.052734"/>
       <use xlink:href="#UnifrakturCook-Bold-30" x="154.589844"/>
       <use xlink:href="#UnifrakturCook-Bold-30" x="205.126953"/>
       <use xlink:href="#UnifrakturCook-Bold-30" x="255.664062"/>
      </g>
     </g>
    </g>
    <g id="text_9">
     <!-- Surface Area (sq. mm) -->
     <g style="fill: #262626" transform="translate(22.769844 330.505313) rotate(-90) scale(0.12 -0.12)">
      <defs>
       <path id="UnifrakturCook-Bold-53" d="M 3106 4609 
Q 3397 4466 3698 4466 
Q 4000 4466 4425 4694 
L 4547 4547 
Q 4084 3544 3422 3544 
Q 3238 3544 2934 3650 
Q 2094 3941 1716 3941 
Q 1538 3941 1359 3906 
Q 872 3803 872 3331 
Q 872 3163 959 3016 
Q 1116 2747 1453 2747 
Q 1791 2747 2059 3347 
Q 2350 3394 2609 3394 
Q 3122 3394 3509 3213 
Q 4094 2941 4281 2450 
Q 4359 2247 4359 1976 
Q 4359 1706 4203 1350 
Q 3938 738 3113 194 
Q 2959 94 2766 94 
Q 2566 94 2331 147 
Q 1706 278 1175 625 
Q 644 972 294 1581 
Q 128 1859 128 2197 
Q 128 2238 131 2278 
Q 241 3797 1331 4716 
Q 1538 4891 1900 4888 
Q 2506 4878 3106 4609 
z
M 1006 2403 
Q 1125 1856 1906 1428 
Q 2497 1106 3006 1106 
Q 3175 1106 3334 1141 
Q 3653 1206 3819 1391 
Q 4000 1591 4000 1811 
Q 4000 2031 3820 2240 
Q 3641 2450 3253 2516 
Q 3216 2522 3112 2522 
Q 3009 2522 2772 2431 
Q 2475 2319 2300 1938 
Q 2272 1938 2244 1938 
Q 1684 1938 1006 2403 
z
" transform="scale(0.015625)"/>
       <path id="UnifrakturCook-Bold-75" d="M 1625 2781 
L 2097 3375 
L 2797 3047 
Q 2763 2919 2717 2797 
Q 2672 2675 2672 2547 
L 2628 1278 
Q 2628 1269 2628 1259 
Q 2628 1106 2722 1007 
Q 2816 909 2938 859 
L 2313 97 
L 1631 691 
L 819 97 
L 159 631 
Q 341 847 341 1063 
L 363 2481 
Q 363 2631 131 2781 
L 606 3375 
L 1303 3047 
Q 1269 2919 1223 2797 
Q 1178 2675 1178 2547 
L 1138 1278 
Q 1131 1128 1250 963 
Q 1288 916 1350 916 
Q 1506 916 1834 1200 
L 1856 2481 
Q 1856 2631 1625 2781 
z
" transform="scale(0.015625)"/>
       <path id="UnifrakturCook-Bold-66" d="M 1831 3756 
Q 1597 3897 1281 3934 
Q 1225 3850 1116 3694 
Q 1175 3566 1206 3378 
L 1716 3378 
L 1716 2591 
L 1253 2591 
Q 1253 2297 1242 1995 
Q 1231 1694 1225 1431 
Q 1209 838 366 -1234 
Q 250 -1119 109 -1081 
Q 325 -313 367 573 
Q 409 1459 409 2046 
Q 409 2634 397 3097 
Q 391 3350 144 3550 
Q 413 3834 636 4112 
Q 859 4391 1128 4678 
Q 1419 4644 1748 4578 
Q 2078 4513 2394 4450 
Q 2253 4272 2112 4100 
Q 1972 3928 1831 3756 
z
" transform="scale(0.015625)"/>
       <path id="UnifrakturCook-Bold-20" transform="scale(0.015625)"/>
       <path id="UnifrakturCook-Bold-41" d="M 2178 3831 
Q 1859 3913 1559 3913 
Q 822 3913 216 3413 
Q 219 3444 195 3576 
Q 172 3709 178 3741 
Q 1000 4416 1966 4797 
Q 3228 4422 4288 3766 
Q 4219 3653 4116 3568 
Q 4013 3484 3944 3375 
Q 3922 3316 3922 3206 
L 3922 3038 
L 3944 1363 
Q 3953 1159 4019 1109 
L 4334 850 
L 3784 97 
L 3069 703 
Q 3138 1194 3138 1988 
L 1969 1988 
Q 1850 881 1292 112 
Q 734 -656 288 -1091 
Q 156 -997 50 -934 
Q 413 -556 592 -68 
Q 772 419 900 961 
Q 1028 1503 1028 2023 
Q 1028 2544 800 3000 
Q 1559 3378 2178 3831 
z
M 3125 2722 
Q 3119 3094 3119 3180 
Q 3119 3266 3122 3375 
Q 2813 3594 2472 3734 
Q 2250 3569 2134 3355 
Q 2019 3141 1997 2722 
L 3125 2722 
z
" transform="scale(0.015625)"/>
       <path id="UnifrakturCook-Bold-28" d="M 63 4050 
L 1594 5059 
L 1719 4881 
Q 1319 4581 1119 3713 
Q 897 2750 897 1831 
Q 897 913 1051 225 
Q 1206 -463 1547 -472 
Q 1372 -1000 1116 -1000 
Q 1009 -1000 891 -906 
Q 484 -594 266 559 
Q 147 1163 122 2045 
Q 97 2928 63 4050 
z
" transform="scale(0.015625)"/>
       <path id="UnifrakturCook-Bold-73" d="M 81 678 
L 625 1247 
Q 331 1641 209 2138 
Q 584 2756 1319 3375 
Q 1897 3216 2644 3075 
L 2719 3094 
L 2131 2491 
L 2644 1206 
Q 2063 772 1575 97 
Q 966 456 81 678 
z
M 1734 894 
Q 2050 894 2050 1119 
Q 2050 1316 1600 1944 
L 850 1172 
Q 1334 894 1734 894 
z
M 1241 1888 
L 1847 2513 
Q 1303 2659 1118 2659 
Q 934 2659 914 2623 
Q 894 2588 894 2556 
Q 894 2378 1241 1888 
z
" transform="scale(0.015625)"/>
       <path id="UnifrakturCook-Bold-71" d="M 50 2372 
L 1269 3363 
L 2578 2716 
Q 2388 2550 2381 2238 
L 2375 -88 
Q 2375 -188 2459 -320 
Q 2544 -453 2641 -544 
L 2084 -1191 
Q 1919 -1063 1759 -908 
Q 1600 -753 1600 -466 
L 1597 594 
Q 1422 453 1244 336 
Q 1066 219 925 91 
Q 456 266 50 631 
Q 163 778 184 1059 
L 175 2003 
Q 175 2016 175 2028 
Q 175 2213 50 2372 
z
M 1106 2613 
Q 922 2344 922 2128 
L 922 1363 
Q 922 1131 1001 1028 
Q 1081 925 1150 844 
Q 1219 763 1350 725 
L 1609 909 
L 1609 2347 
L 1106 2613 
z
" transform="scale(0.015625)"/>
       <path id="UnifrakturCook-Bold-2e" d="M 788 1597 
L 1538 847 
L 788 97 
L 38 847 
L 788 1597 
z
" transform="scale(0.015625)"/>
       <path id="UnifrakturCook-Bold-29" d="M 50 4272 
L 781 5116 
Q 1497 4941 1670 4203 
Q 1844 3466 1844 2741 
Q 1844 1916 1597 875 
Q 1350 -166 472 -1206 
L 241 -1000 
Q 919 -119 1016 700 
Q 1078 1228 1078 1604 
Q 1078 1981 1045 2392 
Q 1013 2803 927 3470 
Q 841 4138 50 4272 
z
" transform="scale(0.015625)"/>
      </defs>
      <use xlink:href="#UnifrakturCook-Bold-53"/>
      <use xlink:href="#UnifrakturCook-Bold-75" x="72.021484"/>
      <use xlink:href="#UnifrakturCook-Bold-72" x="119.824219"/>
      <use xlink:href="#UnifrakturCook-Bold-66" x="159.423828"/>
      <use xlink:href="#UnifrakturCook-Bold-61" x="186.523438"/>
      <use xlink:href="#UnifrakturCook-Bold-63" x="231.542969"/>
      <use xlink:href="#UnifrakturCook-Bold-65" x="269.873047"/>
      <use xlink:href="#UnifrakturCook-Bold-20" x="308.642578"/>
      <use xlink:href="#UnifrakturCook-Bold-41" x="333.056641"/>
      <use xlink:href="#UnifrakturCook-Bold-72" x="401.660156"/>
      <use xlink:href="#UnifrakturCook-Bold-65" x="441.259766"/>
      <use xlink:href="#UnifrakturCook-Bold-61" x="480.029297"/>
      <use xlink:href="#UnifrakturCook-Bold-20" x="525.048828"/>
      <use xlink:href="#UnifrakturCook-Bold-28" x="549.462891"/>
      <use xlink:href="#UnifrakturCook-Bold-73" x="576.904297"/>
      <use xlink:href="#UnifrakturCook-Bold-71" x="620.703125"/>
      <use xlink:href="#UnifrakturCook-Bold-2e" x="663.720703"/>
      <use xlink:href="#UnifrakturCook-Bold-20" x="688.378906"/>
      <use xlink:href="#UnifrakturCook-Bold-6d" x="712.792969"/>
      <use xlink:href="#UnifrakturCook-Bold-6d" x="778.710938"/>
      <use xlink:href="#UnifrakturCook-Bold-29" x="844.628906"/>
     </g>
    </g>
   </g>
   <g id="PolyCollection_1">
    <defs>
     <path id="m1e5889ce4f" d="M 159.132752 -70.938239 
L 158.809123 -70.938239 
L 158.696107 -75.524499 
L 158.520976 -80.110759 
L 158.260101 -84.69702 
L 157.886345 -89.28328 
L 157.371091 -93.86954 
L 156.687366 -98.455801 
L 155.813835 -103.042061 
L 154.739064 -107.628321 
L 153.465144 -112.214582 
L 152.009662 -116.800842 
L 150.40513 -121.387102 
L 148.695634 -125.973363 
L 146.931269 -130.559623 
L 145.161835 -135.145883 
L 143.4317 -139.732144 
L 141.777409 -144.318404 
L 140.228581 -148.904664 
L 138.811121 -153.490925 
L 137.550552 -158.077185 
L 136.472938 -162.663445 
L 135.601759 -167.249706 
L 134.950889 -171.835966 
L 134.515809 -176.422226 
L 134.266545 -181.008487 
L 134.145827 -185.594747 
L 134.074604 -190.181007 
L 133.964806 -194.767268 
L 133.736795 -199.353528 
L 133.337297 -203.939788 
L 132.753141 -208.526049 
L 132.017115 -213.112309 
L 131.204285 -217.698569 
L 130.419637 -222.28483 
L 129.780031 -226.87109 
L 129.394728 -231.45735 
L 129.34869 -236.043611 
L 129.691662 -240.629871 
L 130.434292 -245.216131 
L 131.550656 -249.802392 
L 132.985366 -254.388652 
L 134.663008 -258.974912 
L 136.49799 -263.561173 
L 138.403581 -268.147433 
L 140.299603 -272.733693 
L 142.11853 -277.319954 
L 143.809798 -281.906214 
L 145.341926 -286.492474 
L 146.70209 -291.078735 
L 147.893033 -295.664995 
L 148.927819 -300.251255 
L 149.823521 -304.837515 
L 150.59534 -309.423776 
L 151.252576 -314.010036 
L 151.797386 -318.596296 
L 152.226473 -323.182557 
L 152.535064 -327.768817 
L 152.721979 -332.355077 
L 152.794299 -336.941338 
L 152.77028 -341.527598 
L 152.679541 -346.113858 
L 152.560257 -350.700119 
L 152.453813 -355.286379 
L 152.398139 -359.872639 
L 152.421325 -364.4589 
L 152.537145 -369.04516 
L 152.743603 -373.63142 
L 153.0248 -378.217681 
L 153.355547 -382.803941 
L 153.707446 -387.390201 
L 154.05491 -391.976462 
L 154.379733 -396.562722 
L 154.673336 -401.148982 
L 154.936493 -405.735243 
L 155.176968 -410.321503 
L 155.405965 -414.907763 
L 155.634428 -419.494024 
L 155.87012 -424.080284 
L 156.116044 -428.666544 
L 156.37031 -433.252805 
L 156.627206 -437.839065 
L 156.878962 -442.425325 
L 157.117668 -447.011586 
L 157.33691 -451.597846 
L 157.532839 -456.184106 
L 157.70456 -460.770367 
L 157.8539 -465.356627 
L 157.98466 -469.942887 
L 158.101577 -474.529148 
L 158.209212 -479.115408 
L 158.311036 -483.701668 
L 158.408868 -488.287929 
L 158.502782 -492.874189 
L 158.591452 -497.460449 
L 158.672784 -502.04671 
L 158.744641 -506.63297 
L 158.805458 -511.21923 
L 158.854602 -515.805491 
L 158.892441 -520.391751 
L 158.92017 -524.978011 
L 159.021705 -524.978011 
L 159.021705 -524.978011 
L 159.049434 -520.391751 
L 159.087273 -515.805491 
L 159.136417 -511.21923 
L 159.197234 -506.63297 
L 159.269091 -502.04671 
L 159.350423 -497.460449 
L 159.439093 -492.874189 
L 159.533007 -488.287929 
L 159.630839 -483.701668 
L 159.732663 -479.115408 
L 159.840298 -474.529148 
L 159.957215 -469.942887 
L 160.087975 -465.356627 
L 160.237315 -460.770367 
L 160.409036 -456.184106 
L 160.604965 -451.597846 
L 160.824207 -447.011586 
L 161.062913 -442.425325 
L 161.314669 -437.839065 
L 161.571565 -433.252805 
L 161.825831 -428.666544 
L 162.071755 -424.080284 
L 162.307447 -419.494024 
L 162.53591 -414.907763 
L 162.764907 -410.321503 
L 163.005382 -405.735243 
L 163.268539 -401.148982 
L 163.562142 -396.562722 
L 163.886965 -391.976462 
L 164.234429 -387.390201 
L 164.586328 -382.803941 
L 164.917075 -378.217681 
L 165.198272 -373.63142 
L 165.40473 -369.04516 
L 165.52055 -364.4589 
L 165.543736 -359.872639 
L 165.488062 -355.286379 
L 165.381618 -350.700119 
L 165.262334 -346.113858 
L 165.171595 -341.527598 
L 165.147576 -336.941338 
L 165.219896 -332.355077 
L 165.406811 -327.768817 
L 165.715402 -323.182557 
L 166.144489 -318.596296 
L 166.689299 -314.010036 
L 167.346535 -309.423776 
L 168.118354 -304.837515 
L 169.014056 -300.251255 
L 170.048842 -295.664995 
L 171.239785 -291.078735 
L 172.599949 -286.492474 
L 174.132077 -281.906214 
L 175.823345 -277.319954 
L 177.642272 -272.733693 
L 179.538294 -268.147433 
L 181.443885 -263.561173 
L 183.278867 -258.974912 
L 184.956509 -254.388652 
L 186.391219 -249.802392 
L 187.507583 -245.216131 
L 188.250213 -240.629871 
L 188.593185 -236.043611 
L 188.547147 -231.45735 
L 188.161844 -226.87109 
L 187.522238 -222.28483 
L 186.73759 -217.698569 
L 185.92476 -213.112309 
L 185.188734 -208.526049 
L 184.604578 -203.939788 
L 184.20508 -199.353528 
L 183.977069 -194.767268 
L 183.867271 -190.181007 
L 183.796048 -185.594747 
L 183.67533 -181.008487 
L 183.426066 -176.422226 
L 182.990986 -171.835966 
L 182.340116 -167.249706 
L 181.468937 -162.663445 
L 180.391323 -158.077185 
L 179.130754 -153.490925 
L 177.713294 -148.904664 
L 176.164466 -144.318404 
L 174.510175 -139.732144 
L 172.78004 -135.145883 
L 171.010606 -130.559623 
L 169.246241 -125.973363 
L 167.536745 -121.387102 
L 165.932213 -116.800842 
L 164.476731 -112.214582 
L 163.202811 -107.628321 
L 162.12804 -103.042061 
L 161.254509 -98.455801 
L 160.570784 -93.86954 
L 160.05553 -89.28328 
L 159.681774 -84.69702 
L 159.420899 -80.110759 
L 159.245768 -75.524499 
L 159.132752 -70.938239 
z
" style="stroke: #4c4c4c; stroke-opacity: 0.3; stroke-width: 1.25"/>
    </defs>
    <g clip-path="url(#p5741435ef0)">
     <use xlink:href="#m1e5889ce4f" x="0" y="576" style="fill: #5875a4; fill-opacity: 0.3; stroke: #4c4c4c; stroke-opacity: 0.3; stroke-width: 1.25"/>
    </g>
   </g>
   <g id="PolyCollection_2">
    <defs>
     <path id="m0ff69dee78" d="M 332.51012 -82.555847 
L 332.190505 -82.555847 
L 332.122961 -85.313106 
L 332.035115 -88.070366 
L 331.924001 -90.827625 
L 331.787069 -93.584884 
L 331.622284 -96.342144 
L 331.428086 -99.099403 
L 331.203198 -101.856662 
L 330.946293 -104.613922 
L 330.655563 -107.371181 
L 330.328251 -110.12844 
L 329.960201 -112.8857 
L 329.545467 -115.642959 
L 329.076006 -118.400218 
L 328.541476 -121.157478 
L 327.929206 -123.914737 
L 327.224501 -126.671997 
L 326.411486 -129.429256 
L 325.474753 -132.186515 
L 324.402 -134.943775 
L 323.187613 -137.701034 
L 321.836855 -140.458293 
L 320.369899 -143.215553 
L 318.824682 -145.972812 
L 317.257428 -148.730071 
L 315.73989 -151.487331 
L 314.352899 -154.24459 
L 313.176502 -157.001849 
L 312.277834 -159.759109 
L 311.698478 -162.516368 
L 311.443424 -165.273627 
L 311.473637 -168.030887 
L 311.703718 -170.788146 
L 312.005391 -173.545405 
L 312.216643 -176.302665 
L 312.155645 -179.059924 
L 311.638003 -181.817183 
L 310.495726 -184.574443 
L 308.5962 -187.331702 
L 305.859551 -190.088962 
L 302.27283 -192.846221 
L 297.899477 -195.60348 
L 292.882604 -198.36074 
L 287.440883 -201.117999 
L 281.856323 -203.875258 
L 276.454136 -206.632518 
L 271.575988 -209.389777 
L 267.549129 -212.147036 
L 264.654901 -214.904296 
L 263.100603 -217.661555 
L 262.998562 -220.418814 
L 264.355381 -223.176074 
L 267.072943 -225.933333 
L 270.961002 -228.690592 
L 275.759485 -231.447852 
L 281.167223 -234.205111 
L 286.873025 -236.96237 
L 292.584897 -239.71963 
L 298.053791 -242.476889 
L 303.089391 -245.234148 
L 307.56693 -247.991408 
L 311.425441 -250.748667 
L 314.659136 -253.505927 
L 317.304303 -256.263186 
L 319.4244 -259.020445 
L 321.095738 -261.777705 
L 322.395541 -264.534964 
L 323.393421 -267.292223 
L 324.146527 -270.049483 
L 324.698079 -272.806742 
L 325.078579 -275.564001 
L 325.308846 -278.321261 
L 325.403984 -281.07852 
L 325.377472 -283.835779 
L 325.244719 -286.593039 
L 325.025568 -289.350298 
L 324.745459 -292.107557 
L 324.435163 -294.864817 
L 324.129224 -297.622076 
L 323.863434 -300.379335 
L 323.671804 -303.136595 
L 323.583506 -305.893854 
L 323.620262 -308.651113 
L 323.794509 -311.408373 
L 324.108523 -314.165632 
L 324.554557 -316.922892 
L 325.115896 -319.680151 
L 325.768661 -322.43741 
L 326.484141 -325.19467 
L 327.231394 -327.951929 
L 327.979862 -330.709188 
L 328.701732 -333.466448 
L 329.373851 -336.223707 
L 329.978988 -338.980966 
L 330.506399 -341.738226 
L 330.951676 -344.495485 
L 331.315994 -347.252744 
L 331.604938 -350.010004 
L 331.827112 -352.767263 
L 331.992749 -355.524522 
L 332.707876 -355.524522 
L 332.707876 -355.524522 
L 332.873513 -352.767263 
L 333.095687 -350.010004 
L 333.384631 -347.252744 
L 333.748949 -344.495485 
L 334.194226 -341.738226 
L 334.721637 -338.980966 
L 335.326774 -336.223707 
L 335.998893 -333.466448 
L 336.720763 -330.709188 
L 337.469231 -327.951929 
L 338.216484 -325.19467 
L 338.931964 -322.43741 
L 339.584729 -319.680151 
L 340.146068 -316.922892 
L 340.592102 -314.165632 
L 340.906116 -311.408373 
L 341.080363 -308.651113 
L 341.117119 -305.893854 
L 341.028821 -303.136595 
L 340.837191 -300.379335 
L 340.571401 -297.622076 
L 340.265462 -294.864817 
L 339.955166 -292.107557 
L 339.675057 -289.350298 
L 339.455906 -286.593039 
L 339.323153 -283.835779 
L 339.296641 -281.07852 
L 339.391779 -278.321261 
L 339.622046 -275.564001 
L 340.002546 -272.806742 
L 340.554098 -270.049483 
L 341.307204 -267.292223 
L 342.305084 -264.534964 
L 343.604887 -261.777705 
L 345.276225 -259.020445 
L 347.396322 -256.263186 
L 350.041489 -253.505927 
L 353.275184 -250.748667 
L 357.133695 -247.991408 
L 361.611234 -245.234148 
L 366.646834 -242.476889 
L 372.115728 -239.71963 
L 377.8276 -236.96237 
L 383.533402 -234.205111 
L 388.94114 -231.447852 
L 393.739623 -228.690592 
L 397.627682 -225.933333 
L 400.345244 -223.176074 
L 401.702062 -220.418814 
L 401.600022 -217.661555 
L 400.045724 -214.904296 
L 397.151496 -212.147036 
L 393.124637 -209.389777 
L 388.246489 -206.632518 
L 382.844302 -203.875258 
L 377.259742 -201.117999 
L 371.818021 -198.36074 
L 366.801148 -195.60348 
L 362.427795 -192.846221 
L 358.841074 -190.088962 
L 356.104425 -187.331702 
L 354.204899 -184.574443 
L 353.062622 -181.817183 
L 352.54498 -179.059924 
L 352.483982 -176.302665 
L 352.695234 -173.545405 
L 352.996907 -170.788146 
L 353.226988 -168.030887 
L 353.257201 -165.273627 
L 353.002147 -162.516368 
L 352.422791 -159.759109 
L 351.524123 -157.001849 
L 350.347726 -154.24459 
L 348.960735 -151.487331 
L 347.443197 -148.730071 
L 345.875943 -145.972812 
L 344.330726 -143.215553 
L 342.86377 -140.458293 
L 341.513012 -137.701034 
L 340.298625 -134.943775 
L 339.225872 -132.186515 
L 338.289139 -129.429256 
L 337.476124 -126.671997 
L 336.771419 -123.914737 
L 336.159149 -121.157478 
L 335.624619 -118.400218 
L 335.155158 -115.642959 
L 334.740424 -112.8857 
L 334.372374 -110.12844 
L 334.045062 -107.371181 
L 333.754332 -104.613922 
L 333.497427 -101.856662 
L 333.272539 -99.099403 
L 333.078341 -96.342144 
L 332.913556 -93.584884 
L 332.776624 -90.827625 
L 332.66551 -88.070366 
L 332.577664 -85.313106 
L 332.51012 -82.555847 
z
" style="stroke: #4c4c4c; stroke-opacity: 0.3; stroke-width: 1.25"/>
    </defs>
    <g clip-path="url(#p5741435ef0)">
     <use xlink:href="#m0ff69dee78" x="0" y="576" style="fill: #5875a4; fill-opacity: 0.3; stroke: #4c4c4c; stroke-opacity: 0.3; stroke-width: 1.25"/>
    </g>
   </g>
   <g id="line2d_6">
    <path d="M 158.970937 463.079849 
L 158.970937 175.140727 
" clip-path="url(#p5741435ef0)" style="fill: none; stroke: #4c4c4c; stroke-width: 1.875; stroke-linecap: round"/>
   </g>
   <g id="line2d_7">
    <path d="M 158.970937 396.8119 
L 158.970937 307.891216 
" clip-path="url(#p5741435ef0)" style="fill: none; stroke: #4c4c4c; stroke-width: 5.625; stroke-linecap: round"/>
   </g>
   <g id="line2d_8">
    <path d="M 158.970937 348.343247 
" clip-path="url(#p5741435ef0)" style="fill: none; stroke: #4c4c4c; stroke-width: 1.5; stroke-linecap: round"/>
    <defs>
     <path id="m99147ccbe3" d="M 2.34375 0 
L -2.34375 -0 
" style="stroke: #ffffff; stroke-width: 1.125"/>
    </defs>
    <g clip-path="url(#p5741435ef0)">
     <use xlink:href="#m99147ccbe3" x="158.970937" y="348.343247" style="fill: #ffffff; stroke: #ffffff; stroke-width: 1.125"/>
    </g>
   </g>
   <g id="line2d_9">
    <path d="M 332.350312 390.191498 
L 332.350312 317.230094 
" clip-path="url(#p5741435ef0)" style="fill: none; stroke: #4c4c4c; stroke-width: 1.875; stroke-linecap: round"/>
   </g>
   <g id="line2d_10">
    <path d="M 332.350312 368.515386 
L 332.350312 347.364341 
" clip-path="url(#p5741435ef0)" style="fill: none; stroke: #4c4c4c; stroke-width: 5.625; stroke-linecap: round"/>
   </g>
   <g id="line2d_11">
    <path d="M 332.350312 358.431828 
" clip-path="url(#p5741435ef0)" style="fill: none; stroke: #4c4c4c; stroke-width: 1.5; stroke-linecap: round"/>
    <g clip-path="url(#p5741435ef0)">
     <use xlink:href="#m99147ccbe3" x="332.350312" y="358.431828" style="fill: #ffffff; stroke: #ffffff; stroke-width: 1.125"/>
    </g>
   </g>
   <g id="patch_3">
    <path d="M 145.967484 396.8119 
L 171.974391 396.8119 
L 171.974391 354.31781 
L 165.472664 348.343247 
L 171.974391 342.368684 
L 171.974391 307.891216 
L 145.967484 307.891216 
L 145.967484 342.368684 
L 152.469211 348.343247 
L 145.967484 354.31781 
L 145.967484 396.8119 
z
" clip-path="url(#p5741435ef0)" style="fill: #dd8452; stroke: #5b5b5b; stroke-linejoin: miter"/>
   </g>
   <g id="line2d_12">
    <path d="M 158.970937 396.8119 
L 158.970937 463.079849 
" clip-path="url(#p5741435ef0)" style="fill: none; stroke: #5b5b5b"/>
   </g>
   <g id="line2d_13">
    <path d="M 158.970937 307.891216 
L 158.970937 175.140727 
" clip-path="url(#p5741435ef0)" style="fill: none; stroke: #5b5b5b"/>
   </g>
   <g id="line2d_14">
    <path d="M 152.469211 463.079849 
L 165.472664 463.079849 
" clip-path="url(#p5741435ef0)" style="fill: none; stroke: #5b5b5b; stroke-linecap: round"/>
   </g>
   <g id="line2d_15">
    <path d="M 152.469211 175.140727 
L 165.472664 175.140727 
" clip-path="url(#p5741435ef0)" style="fill: none; stroke: #5b5b5b; stroke-linecap: round"/>
   </g>
   <g id="line2d_16">
    <defs>
     <path id="m7cfd6278dc" d="M 0 3 
C 0.795609 3 1.55874 2.683901 2.12132 2.12132 
C 2.683901 1.55874 3 0.795609 3 0 
C 3 -0.795609 2.683901 -1.55874 2.12132 -2.12132 
C 1.55874 -2.683901 0.795609 -3 0 -3 
C -0.795609 -3 -1.55874 -2.683901 -2.12132 -2.12132 
C -2.683901 -1.55874 -3 -0.795609 -3 0 
C -3 0.795609 -2.683901 1.55874 -2.12132 2.12132 
C -1.55874 2.683901 -0.795609 3 0 3 
z
" style="stroke: #5b5b5b"/>
    </defs>
    <g clip-path="url(#p5741435ef0)">
     <use xlink:href="#m7cfd6278dc" x="158.970937" y="162.632275" style="fill-opacity: 0; stroke: #5b5b5b"/>
     <use xlink:href="#m7cfd6278dc" x="158.970937" y="174.138078" style="fill-opacity: 0; stroke: #5b5b5b"/>
     <use xlink:href="#m7cfd6278dc" x="158.970937" y="151.648798" style="fill-opacity: 0; stroke: #5b5b5b"/>
     <use xlink:href="#m7cfd6278dc" x="158.970937" y="165.828331" style="fill-opacity: 0; stroke: #5b5b5b"/>
     <use xlink:href="#m7cfd6278dc" x="158.970937" y="158.60707" style="fill-opacity: 0; stroke: #5b5b5b"/>
     <use xlink:href="#m7cfd6278dc" x="158.970937" y="111.221423" style="fill-opacity: 0; stroke: #5b5b5b"/>
     <use xlink:href="#m7cfd6278dc" x="158.970937" y="149.619759" style="fill-opacity: 0; stroke: #5b5b5b"/>
     <use xlink:href="#m7cfd6278dc" x="158.970937" y="153.044105" style="fill-opacity: 0; stroke: #5b5b5b"/>
     <use xlink:href="#m7cfd6278dc" x="158.970937" y="149.886401" style="fill-opacity: 0; stroke: #5b5b5b"/>
     <use xlink:href="#m7cfd6278dc" x="158.970937" y="153.044105" style="fill-opacity: 0; stroke: #5b5b5b"/>
     <use xlink:href="#m7cfd6278dc" x="158.970937" y="137.520402" style="fill-opacity: 0; stroke: #5b5b5b"/>
     <use xlink:href="#m7cfd6278dc" x="158.970937" y="93.003901" style="fill-opacity: 0; stroke: #5b5b5b"/>
     <use xlink:href="#m7cfd6278dc" x="158.970937" y="133.710703" style="fill-opacity: 0; stroke: #5b5b5b"/>
     <use xlink:href="#m7cfd6278dc" x="158.970937" y="133.710703" style="fill-opacity: 0; stroke: #5b5b5b"/>
     <use xlink:href="#m7cfd6278dc" x="158.970937" y="93.003901" style="fill-opacity: 0; stroke: #5b5b5b"/>
     <use xlink:href="#m7cfd6278dc" x="158.970937" y="163.40846" style="fill-opacity: 0; stroke: #5b5b5b"/>
     <use xlink:href="#m7cfd6278dc" x="158.970937" y="114.475922" style="fill-opacity: 0; stroke: #5b5b5b"/>
     <use xlink:href="#m7cfd6278dc" x="158.970937" y="163.819381" style="fill-opacity: 0; stroke: #5b5b5b"/>
     <use xlink:href="#m7cfd6278dc" x="158.970937" y="166.273953" style="fill-opacity: 0; stroke: #5b5b5b"/>
     <use xlink:href="#m7cfd6278dc" x="158.970937" y="133.710703" style="fill-opacity: 0; stroke: #5b5b5b"/>
     <use xlink:href="#m7cfd6278dc" x="158.970937" y="162.632275" style="fill-opacity: 0; stroke: #5b5b5b"/>
    </g>
   </g>
   <g id="patch_4">
    <path d="M 319.346859 368.515386 
L 345.353766 368.515386 
L 345.353766 361.569608 
L 338.852039 358.431828 
L 345.353766 355.294048 
L 345.353766 347.364341 
L 319.346859 347.364341 
L 319.346859 355.294048 
L 325.848586 358.431828 
L 319.346859 361.569608 
L 319.346859 368.515386 
z
" clip-path="url(#p5741435ef0)" style="fill: #dd8452; stroke: #5b5b5b; stroke-linejoin: miter"/>
   </g>
   <g id="line2d_17">
    <path d="M 332.350312 368.515386 
L 332.350312 390.191498 
" clip-path="url(#p5741435ef0)" style="fill: none; stroke: #5b5b5b"/>
   </g>
   <g id="line2d_18">
    <path d="M 332.350312 347.364341 
L 332.350312 317.230094 
" clip-path="url(#p5741435ef0)" style="fill: none; stroke: #5b5b5b"/>
   </g>
   <g id="line2d_19">
    <path d="M 325.848586 390.191498 
L 338.852039 390.191498 
" clip-path="url(#p5741435ef0)" style="fill: none; stroke: #5b5b5b; stroke-linecap: round"/>
   </g>
   <g id="line2d_20">
    <path d="M 325.848586 317.230094 
L 338.852039 317.230094 
" clip-path="url(#p5741435ef0)" style="fill: none; stroke: #5b5b5b; stroke-linecap: round"/>
   </g>
   <g id="line2d_21">
    <g clip-path="url(#p5741435ef0)">
     <use xlink:href="#m7cfd6278dc" x="332.350312" y="406.263096" style="fill-opacity: 0; stroke: #5b5b5b"/>
     <use xlink:href="#m7cfd6278dc" x="332.350312" y="420.555861" style="fill-opacity: 0; stroke: #5b5b5b"/>
     <use xlink:href="#m7cfd6278dc" x="332.350312" y="405.989148" style="fill-opacity: 0; stroke: #5b5b5b"/>
     <use xlink:href="#m7cfd6278dc" x="332.350312" y="406.144385" style="fill-opacity: 0; stroke: #5b5b5b"/>
     <use xlink:href="#m7cfd6278dc" x="332.350312" y="412.563893" style="fill-opacity: 0; stroke: #5b5b5b"/>
     <use xlink:href="#m7cfd6278dc" x="332.350312" y="420.64535" style="fill-opacity: 0; stroke: #5b5b5b"/>
     <use xlink:href="#m7cfd6278dc" x="332.350312" y="411.97034" style="fill-opacity: 0; stroke: #5b5b5b"/>
     <use xlink:href="#m7cfd6278dc" x="332.350312" y="417.677584" style="fill-opacity: 0; stroke: #5b5b5b"/>
     <use xlink:href="#m7cfd6278dc" x="332.350312" y="438.862872" style="fill-opacity: 0; stroke: #5b5b5b"/>
     <use xlink:href="#m7cfd6278dc" x="332.350312" y="408.728625" style="fill-opacity: 0; stroke: #5b5b5b"/>
     <use xlink:href="#m7cfd6278dc" x="332.350312" y="410.953081" style="fill-opacity: 0; stroke: #5b5b5b"/>
     <use xlink:href="#m7cfd6278dc" x="332.350312" y="408.728625" style="fill-opacity: 0; stroke: #5b5b5b"/>
     <use xlink:href="#m7cfd6278dc" x="332.350312" y="415.120738" style="fill-opacity: 0; stroke: #5b5b5b"/>
     <use xlink:href="#m7cfd6278dc" x="332.350312" y="415.942582" style="fill-opacity: 0; stroke: #5b5b5b"/>
     <use xlink:href="#m7cfd6278dc" x="332.350312" y="406.657581" style="fill-opacity: 0; stroke: #5b5b5b"/>
     <use xlink:href="#m7cfd6278dc" x="332.350312" y="461.874479" style="fill-opacity: 0; stroke: #5b5b5b"/>
     <use xlink:href="#m7cfd6278dc" x="332.350312" y="439.027241" style="fill-opacity: 0; stroke: #5b5b5b"/>
     <use xlink:href="#m7cfd6278dc" x="332.350312" y="407.815466" style="fill-opacity: 0; stroke: #5b5b5b"/>
     <use xlink:href="#m7cfd6278dc" x="332.350312" y="441.620613" style="fill-opacity: 0; stroke: #5b5b5b"/>
     <use xlink:href="#m7cfd6278dc" x="332.350312" y="407.358887" style="fill-opacity: 0; stroke: #5b5b5b"/>
     <use xlink:href="#m7cfd6278dc" x="332.350312" y="416.947056" style="fill-opacity: 0; stroke: #5b5b5b"/>
     <use xlink:href="#m7cfd6278dc" x="332.350312" y="419.960481" style="fill-opacity: 0; stroke: #5b5b5b"/>
     <use xlink:href="#m7cfd6278dc" x="332.350312" y="266.823717" style="fill-opacity: 0; stroke: #5b5b5b"/>
     <use xlink:href="#m7cfd6278dc" x="332.350312" y="271.069906" style="fill-opacity: 0; stroke: #5b5b5b"/>
     <use xlink:href="#m7cfd6278dc" x="332.350312" y="280.75487" style="fill-opacity: 0; stroke: #5b5b5b"/>
     <use xlink:href="#m7cfd6278dc" x="332.350312" y="255.317913" style="fill-opacity: 0; stroke: #5b5b5b"/>
     <use xlink:href="#m7cfd6278dc" x="332.350312" y="307.824556" style="fill-opacity: 0; stroke: #5b5b5b"/>
     <use xlink:href="#m7cfd6278dc" x="332.350312" y="252.045151" style="fill-opacity: 0; stroke: #5b5b5b"/>
     <use xlink:href="#m7cfd6278dc" x="332.350312" y="257.967901" style="fill-opacity: 0; stroke: #5b5b5b"/>
     <use xlink:href="#m7cfd6278dc" x="332.350312" y="277.051097" style="fill-opacity: 0; stroke: #5b5b5b"/>
     <use xlink:href="#m7cfd6278dc" x="332.350312" y="297.122332" style="fill-opacity: 0; stroke: #5b5b5b"/>
     <use xlink:href="#m7cfd6278dc" x="332.350312" y="273.900699" style="fill-opacity: 0; stroke: #5b5b5b"/>
     <use xlink:href="#m7cfd6278dc" x="332.350312" y="301.889022" style="fill-opacity: 0; stroke: #5b5b5b"/>
     <use xlink:href="#m7cfd6278dc" x="332.350312" y="265.362662" style="fill-opacity: 0; stroke: #5b5b5b"/>
    </g>
   </g>
   <g id="line2d_22">
    <path d="M 152.469211 348.343247 
L 165.472664 348.343247 
" clip-path="url(#p5741435ef0)" style="fill: none; stroke: #5b5b5b"/>
   </g>
   <g id="line2d_23">
    <defs>
     <path id="mfc0e68811a" d="M 0 4.5 
C 1.193414 4.5 2.338109 4.025852 3.181981 3.181981 
C 4.025852 2.338109 4.5 1.193414 4.5 0 
C 4.5 -1.193414 4.025852 -2.338109 3.181981 -3.181981 
C 2.338109 -4.025852 1.193414 -4.5 0 -4.5 
C -1.193414 -4.5 -2.338109 -4.025852 -3.181981 -3.181981 
C -4.025852 -2.338109 -4.5 -1.193414 -4.5 0 
C -4.5 1.193414 -4.025852 2.338109 -3.181981 3.181981 
C -2.338109 4.025852 -1.193414 4.5 0 4.5 
z
" style="stroke: #000000"/>
    </defs>
    <g clip-path="url(#p5741435ef0)">
     <use xlink:href="#mfc0e68811a" x="158.970937" y="339.924901" style="fill: #ffffff; stroke: #000000"/>
    </g>
   </g>
   <g id="line2d_24">
    <path d="M 325.848586 358.431828 
L 338.852039 358.431828 
" clip-path="url(#p5741435ef0)" style="fill: none; stroke: #5b5b5b"/>
   </g>
   <g id="line2d_25">
    <g clip-path="url(#p5741435ef0)">
     <use xlink:href="#mfc0e68811a" x="332.350312" y="359.350319" style="fill: #ffffff; stroke: #000000"/>
    </g>
   </g>
   <g id="patch_5">
    <path d="M 72.28125 527.76375 
L 72.28125 28.32 
" style="fill: none; stroke: #cccccc; stroke-width: 1.25; stroke-linejoin: miter; stroke-linecap: square"/>
   </g>
   <g id="patch_6">
    <path d="M 419.04 527.76375 
L 419.04 28.32 
" style="fill: none; stroke: #cccccc; stroke-width: 1.25; stroke-linejoin: miter; stroke-linecap: square"/>
   </g>
   <g id="patch_7">
    <path d="M 72.28125 527.76375 
L 419.04 527.76375 
" style="fill: none; stroke: #cccccc; stroke-width: 1.25; stroke-linejoin: miter; stroke-linecap: square"/>
   </g>
   <g id="patch_8">
    <path d="M 72.28125 28.32 
L 419.04 28.32 
" style="fill: none; stroke: #cccccc; stroke-width: 1.25; stroke-linejoin: miter; stroke-linecap: square"/>
   </g>
   <g id="text_10">
    <!-- Surface Area of Manuscripts, by Material -->
    <g style="fill: #262626" transform="translate(147.319687 22.32) scale(0.12 -0.12)">
     <defs>
      <path id="UnifrakturCook-Bold-6f" d="M 250 2503 
Q 978 2991 1459 3388 
Q 1700 3284 1944 3019 
Q 2472 2453 2569 1838 
Q 2581 1766 2581 1700 
Q 2581 1494 2466 1366 
L 1428 44 
L 91 703 
Q 303 1144 303 1466 
L 297 2194 
Q 288 2419 250 2503 
z
M 1091 2613 
L 1081 1284 
Q 1109 1131 1296 1045 
Q 1484 959 1545 959 
Q 1606 959 1628 966 
Q 1903 1028 1903 1313 
Q 1903 1378 1888 1459 
Q 1781 1975 1579 2239 
Q 1378 2503 1091 2613 
z
" transform="scale(0.015625)"/>
      <path id="UnifrakturCook-Bold-2c" d="M 731 1703 
L 1563 438 
L 47 -1594 
L 731 1703 
z
" transform="scale(0.015625)"/>
      <path id="UnifrakturCook-Bold-62" d="M 97 4044 
L 131 4191 
Q 753 4409 1472 4797 
L 1669 4675 
Q 1225 4409 1222 3672 
L 1219 3028 
L 1738 3441 
Q 1975 3341 2175 3053 
Q 2584 2466 2653 1806 
Q 2663 1728 2663 1603 
Q 2663 1478 2594 1391 
L 1559 44 
L 219 709 
Q 297 878 365 1070 
Q 434 1263 434 1488 
L 409 3656 
Q 409 3888 97 4044 
z
M 1219 2656 
L 1209 1303 
Q 1238 1147 1423 1061 
Q 1609 975 1673 975 
Q 1738 975 1763 981 
Q 2031 1050 2031 1331 
Q 2031 1400 2016 1481 
Q 1909 2006 1707 2275 
Q 1506 2544 1219 2656 
z
" transform="scale(0.015625)"/>
      <path id="UnifrakturCook-Bold-79" d="M 1450 106 
L 1100 266 
L 347 497 
Q 534 731 534 1063 
L 559 2481 
Q 559 2638 328 2781 
L 800 3375 
L 1550 2878 
Q 1516 2750 1455 2695 
Q 1394 2641 1381 2513 
L 1241 1047 
Q 1231 950 1367 747 
Q 1503 544 1709 534 
Q 2034 1281 2053 2481 
Q 2059 2628 1828 2781 
L 2300 3375 
L 3006 2878 
Q 2972 2750 2934 2711 
Q 2897 2672 2819 2323 
Q 2741 1975 2483 1362 
Q 2225 750 1917 217 
Q 1609 -316 1289 -711 
Q 969 -1106 716 -1238 
L 109 -744 
Q 1022 -409 1450 106 
z
" transform="scale(0.015625)"/>
     </defs>
     <use xlink:href="#UnifrakturCook-Bold-53"/>
     <use xlink:href="#UnifrakturCook-Bold-75" x="72.021484"/>
     <use xlink:href="#UnifrakturCook-Bold-72" x="119.824219"/>
     <use xlink:href="#UnifrakturCook-Bold-66" x="159.423828"/>
     <use xlink:href="#UnifrakturCook-Bold-61" x="186.523438"/>
     <use xlink:href="#UnifrakturCook-Bold-63" x="231.542969"/>
     <use xlink:href="#UnifrakturCook-Bold-65" x="269.873047"/>
     <use xlink:href="#UnifrakturCook-Bold-20" x="308.642578"/>
     <use xlink:href="#UnifrakturCook-Bold-41" x="333.056641"/>
     <use xlink:href="#UnifrakturCook-Bold-72" x="401.660156"/>
     <use xlink:href="#UnifrakturCook-Bold-65" x="441.259766"/>
     <use xlink:href="#UnifrakturCook-Bold-61" x="480.029297"/>
     <use xlink:href="#UnifrakturCook-Bold-20" x="525.048828"/>
     <use xlink:href="#UnifrakturCook-Bold-6f" x="549.462891"/>
     <use xlink:href="#UnifrakturCook-Bold-66" x="591.650391"/>
     <use xlink:href="#UnifrakturCook-Bold-20" x="618.75"/>
     <use xlink:href="#UnifrakturCook-Bold-4d" x="643.164062"/>
     <use xlink:href="#UnifrakturCook-Bold-61" x="735.253906"/>
     <use xlink:href="#UnifrakturCook-Bold-6e" x="780.273438"/>
     <use xlink:href="#UnifrakturCook-Bold-75" x="825.634766"/>
     <use xlink:href="#UnifrakturCook-Bold-73" x="873.4375"/>
     <use xlink:href="#UnifrakturCook-Bold-63" x="917.236328"/>
     <use xlink:href="#UnifrakturCook-Bold-72" x="955.566406"/>
     <use xlink:href="#UnifrakturCook-Bold-69" x="995.166016"/>
     <use xlink:href="#UnifrakturCook-Bold-70" x="1018.115234"/>
     <use xlink:href="#UnifrakturCook-Bold-74" x="1064.160156"/>
     <use xlink:href="#UnifrakturCook-Bold-73" x="1092.480469"/>
     <use xlink:href="#UnifrakturCook-Bold-2c" x="1136.279297"/>
     <use xlink:href="#UnifrakturCook-Bold-20" x="1160.791016"/>
     <use xlink:href="#UnifrakturCook-Bold-62" x="1185.205078"/>
     <use xlink:href="#UnifrakturCook-Bold-79" x="1228.027344"/>
     <use xlink:href="#UnifrakturCook-Bold-20" x="1275.683594"/>
     <use xlink:href="#UnifrakturCook-Bold-4d" x="1300.097656"/>
     <use xlink:href="#UnifrakturCook-Bold-61" x="1392.1875"/>
     <use xlink:href="#UnifrakturCook-Bold-74" x="1437.207031"/>
     <use xlink:href="#UnifrakturCook-Bold-65" x="1465.527344"/>
     <use xlink:href="#UnifrakturCook-Bold-72" x="1504.296875"/>
     <use xlink:href="#UnifrakturCook-Bold-69" x="1543.896484"/>
     <use xlink:href="#UnifrakturCook-Bold-61" x="1566.845703"/>
     <use xlink:href="#UnifrakturCook-Bold-6c" x="1611.865234"/>
    </g>
   </g>
  </g>
 </g>
 <defs>
  <clipPath id="p5741435ef0">
   <rect x="72.28125" y="28.32" width="346.75875" height="499.44375"/>
  </clipPath>
 </defs>
</svg>
